<?xml version="1.0" encoding="UTF-8" standalone="no"?>
<!DOCTYPE svg PUBLIC "-//W3C//DTD SVG 1.1//EN" "http://www.w3.org/Graphics/SVG/1.1/DTD/svg11.dtd">
<svg width="100%" height="100%" viewBox="0 0 1000 1040" version="1.1" xmlns="http://www.w3.org/2000/svg" xmlns:xlink="http://www.w3.org/1999/xlink" xml:space="preserve" xmlns:serif="http://www.serif.com/" style="fill-rule:evenodd;clip-rule:evenodd;stroke-linejoin:round;stroke-miterlimit:2;">
    <rect id="Artboard1" x="0" y="0" width="1000" height="1039.37" style="fill:none;"/>
    <clipPath id="_clip1">
        <rect id="Artboard11" serif:id="Artboard1" x="0" y="0" width="1000" height="1039.37"/>
    </clipPath>
    <g clip-path="url(#_clip1)">
        <path d="M0,100C-0,73.478 10.536,48.043 29.289,29.289C48.043,10.536 73.478,0 100,-0L900,0C926.522,0 951.957,10.536 970.711,29.289C989.464,48.043 1000,73.478 1000,100C1000,298.617 1000,740.753 1000,939.37C1000,965.892 989.464,991.327 970.711,1010.08C951.957,1028.83 926.522,1039.37 900,1039.37L100,1039.37C73.478,1039.37 48.043,1028.83 29.289,1010.08C10.536,991.327 -0,965.892 0,939.37L0,100Z" style="fill:rgb(198,183,119);"/>
        <g id="dining">
            <g transform="matrix(1.28565,0,0,1.16693,-69.683,-103.151)">
                <path d="M278.161,752.517C275.1,842.711 331.303,849.548 334.532,754.43C337.761,659.312 340.22,586.853 340.22,586.853C340.22,586.853 341.733,479.287 342.159,448.984C342.435,429.359 352.149,432.366 374.112,408.41C391.536,389.405 396.175,348.998 379.921,280.997C365.095,218.971 271.468,221.792 258.933,282.964C249.631,328.358 230.535,375.752 258.787,409.048C278.732,432.556 287.291,438.768 287.974,450.05C288.467,458.185 283.789,586.716 283.789,586.716C283.789,586.716 279.166,722.904 278.161,752.517Z" style="fill:rgb(165,140,83);"/>
            </g>
            <g transform="matrix(1.05659,0,0,1.05659,-28.2414,-48.9233)">
                <path d="M538.814,356.877C538.94,148.38 502.284,191.571 502.183,358.225C502.165,388.719 489.488,417.96 515.121,440.284C540.753,462.608 576.478,443.9 581.478,518.422C583.506,548.661 581.027,682.924 581.027,682.924C581.027,682.924 585.163,781.989 586.368,810.861C589.4,883.47 656.502,882.162 653.409,808.062C651.528,763.014 647.9,676.128 647.9,676.128C647.9,676.128 636.781,560.102 636.289,518.837C635.546,456.403 649.824,459.046 668.461,451.891C722.975,430.964 707.873,406.057 702.78,350.137C688.428,192.541 665.721,151.422 662.292,349.074C661.635,386.903 631.84,376.251 628.375,348.486C595.149,82.185 576.061,292.056 578.749,350.758C580.772,394.957 538.807,368.348 538.814,356.877Z" style="fill:rgb(165,140,83);"/>
            </g>
        </g>
    </g>
</svg>
