<?xml version="1.0" encoding="UTF-8" standalone="no"?>
<!DOCTYPE svg PUBLIC "-//W3C//DTD SVG 1.1//EN" "http://www.w3.org/Graphics/SVG/1.1/DTD/svg11.dtd">
<svg width="100%" height="100%" viewBox="0 0 1000 1040" version="1.1" xmlns="http://www.w3.org/2000/svg" xmlns:xlink="http://www.w3.org/1999/xlink" xml:space="preserve" xmlns:serif="http://www.serif.com/" style="fill-rule:evenodd;clip-rule:evenodd;stroke-linejoin:round;stroke-miterlimit:2;">
    <rect id="Artboard1" x="0" y="0" width="1000" height="1039.37" style="fill:none;"/>
    <clipPath id="_clip1">
        <rect id="Artboard11" serif:id="Artboard1" x="0" y="0" width="1000" height="1039.37"/>
    </clipPath>
    <g clip-path="url(#_clip1)">
        <path d="M0,100C-0,73.478 10.536,48.043 29.289,29.289C48.043,10.536 73.478,0 100,-0L900,0C926.522,0 951.957,10.536 970.711,29.289C989.464,48.043 1000,73.478 1000,100C1000,298.617 1000,740.753 1000,939.37C1000,965.892 989.464,991.327 970.711,1010.08C951.957,1028.83 926.522,1039.37 900,1039.37L100,1039.37C73.478,1039.37 48.043,1028.83 29.289,1010.08C10.536,991.327 -0,965.892 0,939.37L0,100Z" style="fill:#c6b777;"/>
        <g id="icon">
            <path d="M28.988,201.822C28.988,201.822 125.329,276.011 221.976,231.936C321.236,186.669 415.592,209.656 452.226,268.847C467.351,293.285 480.323,314.245 480.323,314.245L518.873,314.245C518.873,314.245 563.892,238.296 591.281,229.524C617.744,221.049 650.199,191.797 820.157,238.99C894.635,259.67 969.341,201.822 969.341,201.822C969.341,201.822 962.375,267.909 909.404,289.168C856.432,310.428 755.18,313.973 728.046,306.055C700.912,298.137 648.771,312.752 643.181,320.712C637.591,328.672 690.548,324.768 718.774,394.525C746.651,463.421 798.918,487.963 821.613,483.802C833.171,481.682 755.199,544.119 669.479,511.699L597.178,689.2C597.178,689.2 605.853,768.177 562.24,810.832C538.355,834.194 464.401,831.105 437.828,810.832C411.256,790.56 402.806,689.2 402.806,689.2L330.331,511.699C330.331,511.699 268.657,531.039 242.937,520.604C217.217,510.17 186.33,495.334 177.976,484.714C169.623,474.094 235.728,491.118 266.168,424.793C310.037,329.206 358.647,324.441 358.647,324.441C358.647,324.441 365.505,297.363 207.327,312.412C47.386,327.628 28.988,201.822 28.988,201.822Z" style="fill:#a58c53;"/>
            <g transform="matrix(-1.24097,-0.387509,-0.377419,1.20866,1341.41,135.043)">
                <path d="M563.434,511.699C582.15,480.732 611.902,469.814 633.846,483.077C640.62,487.171 610.926,511.699 610.926,511.699C610.926,511.699 559.876,517.586 563.434,511.699Z" style="fill:#c6b777;"/>
            </g>
            <g transform="matrix(1.24097,-0.387509,0.377419,1.20866,-336.22,135.043)">
                <path d="M563.434,511.699C582.15,480.732 611.902,469.814 633.846,483.077C640.62,487.171 610.926,511.699 610.926,511.699C610.926,511.699 559.876,517.586 563.434,511.699Z" style="fill:#c6b777;"/>
            </g>
            <path d="M597.178,689.2L669.479,511.699" style="fill:none;"/>
        </g>
    </g>
</svg>
