<?xml version="1.0" encoding="UTF-8" standalone="no"?>
<!DOCTYPE svg PUBLIC "-//W3C//DTD SVG 1.1//EN" "http://www.w3.org/Graphics/SVG/1.1/DTD/svg11.dtd">
<svg width="100%" height="100%" viewBox="0 0 1000 1040" version="1.1" xmlns="http://www.w3.org/2000/svg" xmlns:xlink="http://www.w3.org/1999/xlink" xml:space="preserve" xmlns:serif="http://www.serif.com/" style="fill-rule:evenodd;clip-rule:evenodd;stroke-linejoin:round;stroke-miterlimit:2;">
    <rect id="Artboard1" x="0" y="0" width="1000" height="1039.37" style="fill:none;"/>
    <clipPath id="_clip1">
        <rect id="Artboard11" serif:id="Artboard1" x="0" y="0" width="1000" height="1039.37"/>
    </clipPath>
    <g clip-path="url(#_clip1)">
        <path d="M0,100C-0,73.478 10.536,48.043 29.289,29.289C48.043,10.536 73.478,0 100,-0L900,0C926.522,0 951.957,10.536 970.711,29.289C989.464,48.043 1000,73.478 1000,100C1000,298.617 1000,740.753 1000,939.37C1000,965.892 989.464,991.327 970.711,1010.08C951.957,1028.83 926.522,1039.37 900,1039.37L100,1039.37C73.478,1039.37 48.043,1028.83 29.289,1010.08C10.536,991.327 -0,965.892 0,939.37L0,100Z" style="fill:rgb(198,183,119);"/>
        <g id="building" transform="matrix(1,0,0,1,37.1038,-24.682)">
            <g id="res-hall" serif:id="res hall">
                <g id="building1" serif:id="building">
                    <path d="M234.848,847.155L236.91,227.692L523.44,227.692L523.44,847.155L234.848,847.155Z" style="fill:rgb(165,140,83);"/>
                    <g transform="matrix(1,0,0,1,-136,0)">
                        <path d="M657.052,847.155L826.944,847.155L826.944,453.933L654.536,453.875L657.052,847.155Z" style="fill:rgb(165,140,83);"/>
                    </g>
                    <path d="M365.083,861.042L366.165,729.38L440.973,729.946L439.9,861.042L365.083,861.042" style="fill:rgb(198,183,119);"/>
                </g>
            </g>
        </g>
    </g>
</svg>
