<?xml version="1.0" encoding="UTF-8" standalone="no"?>
<!DOCTYPE svg PUBLIC "-//W3C//DTD SVG 1.1//EN" "http://www.w3.org/Graphics/SVG/1.1/DTD/svg11.dtd">
<svg width="100%" height="100%" viewBox="0 0 4961 3508" version="1.1" xmlns="http://www.w3.org/2000/svg" xmlns:xlink="http://www.w3.org/1999/xlink" xml:space="preserve" xmlns:serif="http://www.serif.com/" style="fill-rule:evenodd;clip-rule:evenodd;stroke-linejoin:round;stroke-miterlimit:2;">
    <rect id="Artboard1" x="0" y="0" width="4960.63" height="3507.87" style="fill:none;"/>
    <g id="Artboard11" serif:id="Artboard1">
        <g id="Logo" transform="matrix(1,0,0,1,101.437,-234.171)">
            <g id="gompei">
                <g id="Logo1" serif:id="Logo">
                    <g transform="matrix(5.82777,0,0,5.82777,-8187.76,-3925.61)">
                        <g transform="matrix(68.9245,0,0,68.9245,2077.09,918.574)">
                        </g>
                        <text x="1654.37px" y="918.574px" style="font-family:'HyliaSerifBeta-Regular', 'Hylia Serif Beta';font-size:68.924px;fill:rgb(35,31,32);">t<tspan x="1687.87px " y="918.574px ">h</tspan>e legend o<tspan x="2044px " y="918.574px ">f</tspan></text>
                    </g>
                    <g id="Tears" transform="matrix(1,0,0,1,-19.8985,-4.54747e-13)">
                        <g transform="matrix(0.274773,0,0,0.274773,696.297,2562.26)">
                            <g transform="matrix(1555.78,0,0,1555.78,3959.92,648.979)">
                            </g>
                            <text x="2981.33px" y="648.979px" style="font-family:'HyliaSerifBeta-Regular', 'Hylia Serif Beta';font-size:1555.78px;fill:rgb(35,31,32);">T</text>
                        </g>
                        <g transform="matrix(1.86058,0,0,1.86058,-4303.88,-3283.42)">
                            <g transform="matrix(200,0,0,200,3678.61,3177.69)">
                            </g>
                            <text x="3283.2px" y="3177.69px" style="font-family:'HyliaSerifBeta-Regular', 'Hylia Serif Beta';font-size:200px;fill:rgb(35,31,32);">ears</text>
                        </g>
                    </g>
                    <g id="Engineer" transform="matrix(1,0,0,1,-113.089,0)">
                        <g transform="matrix(0.274773,0,0,0.274773,2215.24,2562.26)">
                            <g transform="matrix(1555.78,0,0,1555.78,3939.69,648.979)">
                            </g>
                            <text x="2981.33px" y="648.979px" style="font-family:'HyliaSerifBeta-Regular', 'Hylia Serif Beta';font-size:1555.78px;fill:rgb(35,31,32);">E</text>
                        </g>
                        <g transform="matrix(1.85917,0,0,1.85917,-2793.97,-3278.73)">
                            <g transform="matrix(200,0,0,200,3981.41,3177.69)">
                            </g>
                            <text x="3283.2px" y="3177.69px" style="font-family:'HyliaSerifBeta-Regular', 'Hylia Serif Beta';font-size:200px;fill:rgb(35,31,32);">n<tspan x="3393.2px 3498.81px 3564.81px " y="3177.69px 3177.69px 3177.69px ">gin</tspan>eer</text>
                        </g>
                    </g>
                    <g transform="matrix(1,0,0,1,-996.425,-337.323)">
                        <text x="3563.61px" y="2859.72px" style="font-family:'HyliaSerifBeta-Regular', 'Hylia Serif Beta';font-size:200px;fill:rgb(35,31,32);">o<tspan x="3672.21px " y="2859.72px ">f</tspan></text>
                        <g transform="matrix(200,0,0,200,3876.81,3059.72)">
                        </g>
                        <text x="3563.61px" y="3059.72px" style="font-family:'HyliaSerifBeta-Regular', 'Hylia Serif Beta';font-size:200px;fill:rgb(35,31,32);">t<tspan x="3660.81px " y="3059.72px ">h</tspan>e</text>
                    </g>
                    <g transform="matrix(1.23595,0,0,1.23595,-1202.37,-430.153)">
                        <g transform="matrix(1555.78,0,0,1555.78,2121.35,2577.36)">
                        </g>
                        <text x="1108.54px" y="2577.36px" style="font-family:'HyliaSerifBeta-Regular', 'Hylia Serif Beta';font-size:1555.78px;fill:rgb(35,31,32);">G</text>
                    </g>
                    <g transform="matrix(0.792654,0,0,0.792654,-469.354,907.935)">
                        <g transform="matrix(1555.78,0,0,1555.78,6392.62,1732)">
                        </g>
                        <text x="2395.83px" y="1732px" style="font-family:'HyliaSerifBeta-Regular', 'Hylia Serif Beta';font-size:1555.78px;fill:rgb(35,31,32);">o<tspan x="3240.62px 4289.21px 5116.89px " y="1732px 1732px 1732px ">mpe</tspan>i</text>
                    </g>
                </g>
            </g>
        </g>
    </g>
</svg>
