<?xml version="1.0" encoding="UTF-8" standalone="no"?>
<!DOCTYPE svg PUBLIC "-//W3C//DTD SVG 1.1//EN" "http://www.w3.org/Graphics/SVG/1.1/DTD/svg11.dtd">
<svg width="100%" height="100%" viewBox="0 0 4961 3508" version="1.1" xmlns="http://www.w3.org/2000/svg" xmlns:xlink="http://www.w3.org/1999/xlink" xml:space="preserve" xmlns:serif="http://www.serif.com/" style="fill-rule:evenodd;clip-rule:evenodd;stroke-linejoin:round;stroke-miterlimit:2;">
    <g id="Logo" transform="matrix(1,0,0,1,101.437,-234.171)">
        <g id="gompei">
            <g id="Logo1" serif:id="Logo">
                <g transform="matrix(5.82777,0,0,5.82777,-8187.76,-3925.61)">
                    <g transform="matrix(68.9245,0,0,68.9245,1654.37,918.574)">
                        <path d="M0.401,-0.541L0.481,-0.357L0.481,-0.603L0.025,-0.603L0.025,-0.357L0.104,-0.541L0.177,-0.541L0.177,-0.062L0.108,-0L0.398,-0L0.327,-0.062L0.327,-0.541L0.401,-0.541Z" style="fill:rgb(35,31,32);fill-rule:nonzero;"/>
                    </g>
                    <g transform="matrix(68.9245,0,0,68.9245,1687.87,918.574)">
                        <path d="M0.517,-0.541L0.588,-0.603L0.31,-0.603L0.38,-0.541L0.38,-0.345L0.218,-0.345L0.218,-0.541L0.29,-0.603L0.012,-0.603L0.082,-0.541L0.082,-0.062L0.012,-0L0.29,-0L0.218,-0.062L0.218,-0.274L0.38,-0.274L0.38,-0.062L0.31,-0L0.588,-0L0.517,-0.062L0.517,-0.541Z" style="fill:rgb(35,31,32);fill-rule:nonzero;"/>
                    </g>
                    <g transform="matrix(68.9245,0,0,68.9245,1729.22,918.574)">
                        <path d="M0.35,-0.531L0.443,-0.376L0.443,-0.603L0.012,-0.603L0.083,-0.541L0.083,-0.062L0.012,-0L0.443,-0L0.443,-0.272L0.357,-0.072L0.232,-0.072L0.232,-0.272L0.291,-0.272L0.352,-0.195L0.352,-0.42L0.291,-0.342L0.232,-0.342L0.232,-0.531L0.35,-0.531Z" style="fill:rgb(35,31,32);fill-rule:nonzero;"/>
                    </g>
                    <g transform="matrix(68.9245,0,0,68.9245,1779.4,918.574)">
                        <path d="M0.322,-0.062L0.232,-0.062L0.232,-0.541L0.304,-0.603L0.012,-0.603L0.083,-0.541L0.083,-0.062L0.012,-0L0.428,-0L0.428,-0.332L0.322,-0.062Z" style="fill:rgb(35,31,32);fill-rule:nonzero;"/>
                    </g>
                    <g transform="matrix(68.9245,0,0,68.9245,1811.45,918.574)">
                        <path d="M0.35,-0.531L0.443,-0.376L0.443,-0.603L0.012,-0.603L0.083,-0.541L0.083,-0.062L0.012,-0L0.443,-0L0.443,-0.272L0.357,-0.072L0.232,-0.072L0.232,-0.272L0.291,-0.272L0.352,-0.195L0.352,-0.42L0.291,-0.342L0.232,-0.342L0.232,-0.531L0.35,-0.531Z" style="fill:rgb(35,31,32);fill-rule:nonzero;"/>
                    </g>
                    <g transform="matrix(68.9245,0,0,68.9245,1844.53,918.574)">
                        <path d="M0.541,-0.339L0.26,-0.339L0.332,-0.278L0.332,-0.071C0.332,-0.071 0.311,-0.052 0.275,-0.052C0.201,-0.052 0.162,-0.127 0.162,-0.303C0.162,-0.469 0.197,-0.553 0.284,-0.553C0.371,-0.553 0.433,-0.433 0.466,-0.371L0.466,-0.62L0.408,-0.584C0.408,-0.584 0.352,-0.619 0.283,-0.619C0.104,-0.619 0.012,-0.509 0.012,-0.301C0.012,-0.104 0.107,0.015 0.283,0.015C0.365,0.015 0.409,-0.012 0.409,-0.012L0.466,0.015L0.466,-0.277L0.541,-0.339Z" style="fill:rgb(35,31,32);fill-rule:nonzero;"/>
                    </g>
                    <g transform="matrix(68.9245,0,0,68.9245,1880.93,918.574)">
                        <path d="M0.35,-0.531L0.443,-0.376L0.443,-0.603L0.012,-0.603L0.083,-0.541L0.083,-0.062L0.012,-0L0.443,-0L0.443,-0.272L0.357,-0.072L0.232,-0.072L0.232,-0.272L0.291,-0.272L0.352,-0.195L0.352,-0.42L0.291,-0.342L0.232,-0.342L0.232,-0.531L0.35,-0.531Z" style="fill:rgb(35,31,32);fill-rule:nonzero;"/>
                    </g>
                    <g transform="matrix(68.9245,0,0,68.9245,1914.01,918.574)">
                        <path d="M0.012,-0L0.083,-0.062L0.083,-0.541L0.012,-0.603L0.191,-0.603L0.376,-0.346L0.376,-0.541L0.306,-0.603L0.548,-0.603L0.476,-0.541L0.476,0.015L0.176,-0.393L0.176,-0.062L0.247,-0L0.012,-0Z" style="fill:rgb(35,31,32);fill-rule:nonzero;"/>
                    </g>
                    <g transform="matrix(68.9245,0,0,68.9245,1952.61,918.574)">
                        <path d="M0.227,-0.603L0.012,-0.603L0.083,-0.541L0.083,-0.062L0.012,-0L0.238,-0C0.397,-0 0.523,-0.12 0.523,-0.301C0.523,-0.48 0.399,-0.603 0.227,-0.603ZM0.232,-0.064L0.232,-0.54C0.285,-0.54 0.381,-0.474 0.381,-0.301C0.381,-0.129 0.274,-0.064 0.232,-0.064Z" style="fill:rgb(35,31,32);fill-rule:nonzero;"/>
                    </g>
                    <g transform="matrix(68.9245,0,0,68.9245,2006.58,918.574)">
                        <path d="M0.277,-0.619C0.118,-0.619 0.012,-0.485 0.012,-0.301C0.012,-0.118 0.118,0.015 0.277,0.015C0.434,0.015 0.541,-0.118 0.541,-0.301C0.541,-0.485 0.434,-0.619 0.277,-0.619ZM0.277,-0.052C0.202,-0.052 0.161,-0.125 0.161,-0.303C0.161,-0.48 0.202,-0.553 0.277,-0.553C0.351,-0.553 0.392,-0.48 0.392,-0.303C0.392,-0.125 0.351,-0.052 0.277,-0.052ZM0.217,-0.299L0.277,-0.208L0.336,-0.299L0.277,-0.394L0.217,-0.299Z" style="fill:rgb(35,31,32);fill-rule:nonzero;"/>
                    </g>
                    <g transform="matrix(68.9245,0,0,68.9245,2044,918.574)">
                        <path d="M0.35,-0.531L0.443,-0.375L0.443,-0.603L0.012,-0.603L0.083,-0.541L0.083,-0.062L0.012,-0L0.311,-0L0.232,-0.062L0.232,-0.272L0.291,-0.272L0.352,-0.195L0.352,-0.42L0.291,-0.342L0.232,-0.342L0.232,-0.531L0.35,-0.531Z" style="fill:rgb(35,31,32);fill-rule:nonzero;"/>
                    </g>
                </g>
                <g id="Tears" transform="matrix(1,0,0,1,-19.8985,-4.54747e-13)">
                    <g transform="matrix(0.274773,0,0,0.274773,696.297,2562.26)">
                        <g transform="matrix(1555.78,0,0,1555.78,2981.33,648.979)">
                            <path d="M0.604,-0.8L0.025,-0.8L0.025,-0.474L0.134,-0.717L0.229,-0.717L0.229,-0.069L0.14,-0L0.489,-0L0.401,-0.069L0.401,-0.717L0.495,-0.717L0.604,-0.474L0.604,-0.8ZM0.315,-0.733L0.341,-0.523L0.315,-0.484L0.288,-0.523L0.315,-0.733ZM0.315,-0.365L0.287,-0.401L0.315,-0.438L0.344,-0.401L0.315,-0.365ZM0.315,-0.068L0.288,-0.28L0.315,-0.319L0.341,-0.28L0.315,-0.068Z" style="fill:rgb(35,31,32);fill-rule:nonzero;"/>
                        </g>
                    </g>
                    <g transform="matrix(1.86058,0,0,1.86058,-4303.88,-3283.42)">
                        <g transform="matrix(200,0,0,200,3283.21,3177.69)">
                            <path d="M0.35,-0.531L0.443,-0.376L0.443,-0.603L0.012,-0.603L0.083,-0.541L0.083,-0.062L0.012,-0L0.443,-0L0.443,-0.272L0.357,-0.072L0.232,-0.072L0.232,-0.272L0.291,-0.272L0.352,-0.195L0.352,-0.42L0.291,-0.342L0.232,-0.342L0.232,-0.531L0.35,-0.531Z" style="fill:rgb(35,31,32);fill-rule:nonzero;"/>
                        </g>
                        <g transform="matrix(200,0,0,200,3379.21,3177.69)">
                            <path d="M0.258,-0L0.527,-0L0.459,-0.062L0.324,-0.603L0.108,-0.603L0.179,-0.541L0.038,-0.062L-0.037,-0L0.19,-0L0.124,-0.052L0.16,-0.186L0.279,-0.186L0.309,-0.05L0.258,-0ZM0.179,-0.258L0.224,-0.428L0.263,-0.258L0.179,-0.258Z" style="fill:rgb(35,31,32);fill-rule:nonzero;"/>
                        </g>
                        <g transform="matrix(200,0,0,200,3477.21,3177.69)">
                            <path d="M0.392,-0L0.588,-0L0.512,-0.062L0.375,-0.283C0.451,-0.299 0.531,-0.327 0.531,-0.44C0.531,-0.543 0.44,-0.603 0.264,-0.603L0.012,-0.603L0.082,-0.541L0.082,-0.062L0.012,-0L0.304,-0L0.232,-0.062L0.232,-0.264L0.392,-0ZM0.387,-0.438C0.387,-0.378 0.357,-0.344 0.243,-0.344L0.232,-0.344L0.232,-0.541L0.243,-0.541C0.351,-0.541 0.387,-0.504 0.387,-0.438Z" style="fill:rgb(35,31,32);fill-rule:nonzero;"/>
                        </g>
                        <g transform="matrix(200,0,0,200,3589.81,3177.69)">
                            <path d="M0.283,-0.37C0.217,-0.403 0.155,-0.434 0.155,-0.485C0.155,-0.527 0.186,-0.549 0.241,-0.549C0.301,-0.549 0.362,-0.512 0.398,-0.402L0.398,-0.619L0.351,-0.585C0.319,-0.607 0.277,-0.618 0.233,-0.618C0.125,-0.618 0.045,-0.558 0.045,-0.451C0.045,-0.345 0.119,-0.3 0.191,-0.262C0.257,-0.227 0.313,-0.196 0.313,-0.14C0.313,-0.088 0.269,-0.055 0.222,-0.055C0.158,-0.055 0.103,-0.11 0.037,-0.251L0.038,0.015L0.089,-0.025C0.128,-0 0.169,0.015 0.228,0.015C0.337,0.015 0.432,-0.057 0.432,-0.166C0.432,-0.282 0.36,-0.33 0.283,-0.37Z" style="fill:rgb(35,31,32);fill-rule:nonzero;"/>
                        </g>
                    </g>
                </g>
                <g id="Engineer" transform="matrix(1,0,0,1,-113.089,0)">
                    <g transform="matrix(0.274773,0,0,0.274773,2215.24,2562.26)">
                        <g transform="matrix(1555.78,0,0,1555.78,2981.33,648.979)">
                            <path d="M0.429,-0.717L0.564,-0.47L0.564,-0.8L0.012,-0.8L0.102,-0.733L0.102,-0.069L0.012,-0L0.564,-0L0.564,-0.33L0.429,-0.082L0.284,-0.082L0.284,-0.37L0.34,-0.37L0.437,-0.244L0.437,-0.567L0.34,-0.448L0.284,-0.448L0.284,-0.717L0.429,-0.717ZM0.216,-0.523L0.192,-0.484L0.169,-0.523L0.191,-0.726L0.193,-0.726L0.216,-0.523ZM0.192,-0.365L0.167,-0.401L0.192,-0.438L0.218,-0.401L0.192,-0.365ZM0.192,-0.068L0.169,-0.28L0.192,-0.319L0.216,-0.28L0.192,-0.068Z" style="fill:rgb(35,31,32);fill-rule:nonzero;"/>
                        </g>
                    </g>
                    <g transform="matrix(1.85917,0,0,1.85917,-2793.97,-3278.73)">
                        <g transform="matrix(200,0,0,200,3283.21,3177.69)">
                            <path d="M0.012,-0L0.083,-0.062L0.083,-0.541L0.012,-0.603L0.191,-0.603L0.376,-0.346L0.376,-0.541L0.306,-0.603L0.548,-0.603L0.476,-0.541L0.476,0.015L0.176,-0.393L0.176,-0.062L0.247,-0L0.012,-0Z" style="fill:rgb(35,31,32);fill-rule:nonzero;"/>
                        </g>
                        <g transform="matrix(200,0,0,200,3393.21,3177.69)">
                            <path d="M0.541,-0.339L0.26,-0.339L0.332,-0.278L0.332,-0.071C0.332,-0.071 0.311,-0.052 0.275,-0.052C0.201,-0.052 0.162,-0.127 0.162,-0.303C0.162,-0.469 0.197,-0.553 0.284,-0.553C0.371,-0.553 0.433,-0.433 0.466,-0.371L0.466,-0.62L0.408,-0.584C0.408,-0.584 0.352,-0.619 0.283,-0.619C0.104,-0.619 0.012,-0.509 0.012,-0.301C0.012,-0.104 0.107,0.015 0.283,0.015C0.365,0.015 0.409,-0.012 0.409,-0.012L0.466,0.015L0.466,-0.277L0.541,-0.339Z" style="fill:rgb(35,31,32);fill-rule:nonzero;"/>
                        </g>
                        <g transform="matrix(200,0,0,200,3498.81,3177.69)">
                            <path d="M0.244,-0.541L0.315,-0.603L0.025,-0.603L0.094,-0.541L0.094,-0.062L0.025,-0L0.315,-0L0.244,-0.062L0.244,-0.541Z" style="fill:rgb(35,31,32);fill-rule:nonzero;"/>
                        </g>
                        <g transform="matrix(200,0,0,200,3564.81,3177.69)">
                            <path d="M0.012,-0L0.083,-0.062L0.083,-0.541L0.012,-0.603L0.191,-0.603L0.376,-0.346L0.376,-0.541L0.306,-0.603L0.548,-0.603L0.476,-0.541L0.476,0.015L0.176,-0.393L0.176,-0.062L0.247,-0L0.012,-0Z" style="fill:rgb(35,31,32);fill-rule:nonzero;"/>
                        </g>
                        <g transform="matrix(200,0,0,200,3676.81,3177.69)">
                            <path d="M0.35,-0.531L0.443,-0.376L0.443,-0.603L0.012,-0.603L0.083,-0.541L0.083,-0.062L0.012,-0L0.443,-0L0.443,-0.272L0.357,-0.072L0.232,-0.072L0.232,-0.272L0.291,-0.272L0.352,-0.195L0.352,-0.42L0.291,-0.342L0.232,-0.342L0.232,-0.531L0.35,-0.531Z" style="fill:rgb(35,31,32);fill-rule:nonzero;"/>
                        </g>
                        <g transform="matrix(200,0,0,200,3772.81,3177.69)">
                            <path d="M0.35,-0.531L0.443,-0.376L0.443,-0.603L0.012,-0.603L0.083,-0.541L0.083,-0.062L0.012,-0L0.443,-0L0.443,-0.272L0.357,-0.072L0.232,-0.072L0.232,-0.272L0.291,-0.272L0.352,-0.195L0.352,-0.42L0.291,-0.342L0.232,-0.342L0.232,-0.531L0.35,-0.531Z" style="fill:rgb(35,31,32);fill-rule:nonzero;"/>
                        </g>
                        <g transform="matrix(200,0,0,200,3868.81,3177.69)">
                            <path d="M0.392,-0L0.588,-0L0.512,-0.062L0.375,-0.283C0.451,-0.299 0.531,-0.327 0.531,-0.44C0.531,-0.543 0.44,-0.603 0.264,-0.603L0.012,-0.603L0.082,-0.541L0.082,-0.062L0.012,-0L0.304,-0L0.232,-0.062L0.232,-0.264L0.392,-0ZM0.387,-0.438C0.387,-0.378 0.357,-0.344 0.243,-0.344L0.232,-0.344L0.232,-0.541L0.243,-0.541C0.351,-0.541 0.387,-0.504 0.387,-0.438Z" style="fill:rgb(35,31,32);fill-rule:nonzero;"/>
                        </g>
                    </g>
                </g>
                <g transform="matrix(1,0,0,1,-996.425,-337.323)">
                    <g transform="matrix(200,0,0,200,3563.61,2859.72)">
                        <path d="M0.277,-0.619C0.118,-0.619 0.012,-0.485 0.012,-0.301C0.012,-0.118 0.118,0.015 0.277,0.015C0.434,0.015 0.541,-0.118 0.541,-0.301C0.541,-0.485 0.434,-0.619 0.277,-0.619ZM0.277,-0.052C0.202,-0.052 0.161,-0.125 0.161,-0.303C0.161,-0.48 0.202,-0.553 0.277,-0.553C0.351,-0.553 0.392,-0.48 0.392,-0.303C0.392,-0.125 0.351,-0.052 0.277,-0.052ZM0.217,-0.299L0.277,-0.208L0.336,-0.299L0.277,-0.394L0.217,-0.299Z" style="fill:rgb(35,31,32);fill-rule:nonzero;"/>
                    </g>
                    <g transform="matrix(200,0,0,200,3672.21,2859.72)">
                        <path d="M0.35,-0.531L0.443,-0.375L0.443,-0.603L0.012,-0.603L0.083,-0.541L0.083,-0.062L0.012,-0L0.311,-0L0.232,-0.062L0.232,-0.272L0.291,-0.272L0.352,-0.195L0.352,-0.42L0.291,-0.342L0.232,-0.342L0.232,-0.531L0.35,-0.531Z" style="fill:rgb(35,31,32);fill-rule:nonzero;"/>
                    </g>
                    <g transform="matrix(200,0,0,200,3563.61,3059.72)">
                        <path d="M0.401,-0.541L0.481,-0.357L0.481,-0.603L0.025,-0.603L0.025,-0.357L0.104,-0.541L0.177,-0.541L0.177,-0.062L0.108,-0L0.398,-0L0.327,-0.062L0.327,-0.541L0.401,-0.541Z" style="fill:rgb(35,31,32);fill-rule:nonzero;"/>
                    </g>
                    <g transform="matrix(200,0,0,200,3660.81,3059.72)">
                        <path d="M0.517,-0.541L0.588,-0.603L0.31,-0.603L0.38,-0.541L0.38,-0.345L0.218,-0.345L0.218,-0.541L0.29,-0.603L0.012,-0.603L0.082,-0.541L0.082,-0.062L0.012,-0L0.29,-0L0.218,-0.062L0.218,-0.274L0.38,-0.274L0.38,-0.062L0.31,-0L0.588,-0L0.517,-0.062L0.517,-0.541Z" style="fill:rgb(35,31,32);fill-rule:nonzero;"/>
                    </g>
                    <g transform="matrix(200,0,0,200,3780.81,3059.72)">
                        <path d="M0.35,-0.531L0.443,-0.376L0.443,-0.603L0.012,-0.603L0.083,-0.541L0.083,-0.062L0.012,-0L0.443,-0L0.443,-0.272L0.357,-0.072L0.232,-0.072L0.232,-0.272L0.291,-0.272L0.352,-0.195L0.352,-0.42L0.291,-0.342L0.232,-0.342L0.232,-0.531L0.35,-0.531Z" style="fill:rgb(35,31,32);fill-rule:nonzero;"/>
                    </g>
                </g>
                <g transform="matrix(1.23595,0,0,1.23595,-1202.37,-430.153)">
                    <g transform="matrix(1555.78,0,0,1555.78,1108.54,2577.36)">
                        <path d="M0.334,-0.445L0.425,-0.37L0.425,-0.079C0.404,-0.067 0.387,-0.06 0.362,-0.06C0.268,-0.06 0.2,-0.167 0.2,-0.399C0.2,-0.631 0.268,-0.739 0.362,-0.739C0.45,-0.739 0.54,-0.605 0.576,-0.495L0.576,-0.82L0.509,-0.771C0.509,-0.771 0.465,-0.82 0.336,-0.82C0.143,-0.82 0.012,-0.644 0.012,-0.399C0.012,-0.155 0.143,0.021 0.336,0.021C0.447,0.021 0.509,-0.027 0.509,-0.027L0.576,0.022L0.576,-0.367L0.664,-0.445L0.334,-0.445ZM0.207,-0.716C0.164,-0.664 0.145,-0.588 0.135,-0.512L0.11,-0.481L0.094,-0.517C0.109,-0.598 0.145,-0.675 0.207,-0.716ZM0.107,-0.434L0.133,-0.398L0.107,-0.363L0.081,-0.398L0.107,-0.434ZM0.094,-0.28L0.11,-0.316L0.135,-0.284C0.138,-0.202 0.159,-0.133 0.202,-0.081C0.14,-0.123 0.102,-0.201 0.094,-0.28Z" style="fill:rgb(35,31,32);fill-rule:nonzero;"/>
                    </g>
                </g>
                <g transform="matrix(0.792654,0,0,0.792654,-469.354,907.935)">
                    <g transform="matrix(1555.78,0,0,1555.78,2395.83,1732)">
                        <path d="M0.277,-0.619C0.118,-0.619 0.012,-0.485 0.012,-0.301C0.012,-0.118 0.118,0.015 0.277,0.015C0.434,0.015 0.541,-0.118 0.541,-0.301C0.541,-0.485 0.434,-0.619 0.277,-0.619ZM0.277,-0.052C0.202,-0.052 0.161,-0.125 0.161,-0.303C0.161,-0.48 0.202,-0.553 0.277,-0.553C0.351,-0.553 0.392,-0.48 0.392,-0.303C0.392,-0.125 0.351,-0.052 0.277,-0.052ZM0.217,-0.299L0.277,-0.208L0.336,-0.299L0.277,-0.394L0.217,-0.299Z" style="fill:rgb(35,31,32);fill-rule:nonzero;"/>
                    </g>
                    <g transform="matrix(1555.78,0,0,1555.78,3240.62,1732)">
                        <path d="M0.012,-0L0.082,-0.062L0.082,-0.541L0.012,-0.603L0.262,-0.603L0.352,-0.327L0.434,-0.603L0.662,-0.603L0.592,-0.541L0.592,-0.062L0.662,-0L0.383,-0L0.454,-0.062L0.454,-0.394L0.325,0.015L0.182,-0.399L0.182,-0.062L0.253,-0L0.012,-0Z" style="fill:rgb(35,31,32);fill-rule:nonzero;"/>
                    </g>
                    <g transform="matrix(1555.78,0,0,1555.78,4289.21,1732)">
                        <path d="M0.257,-0.262C0.442,-0.262 0.522,-0.32 0.522,-0.434C0.522,-0.544 0.43,-0.603 0.247,-0.603L0.012,-0.603L0.083,-0.541L0.083,-0.062L0.012,-0L0.304,-0L0.232,-0.062L0.232,-0.262L0.257,-0.262ZM0.259,-0.541C0.33,-0.541 0.375,-0.51 0.375,-0.438C0.375,-0.362 0.329,-0.33 0.247,-0.33L0.232,-0.33L0.232,-0.541L0.259,-0.541Z" style="fill:rgb(35,31,32);fill-rule:nonzero;"/>
                    </g>
                    <g transform="matrix(1555.78,0,0,1555.78,5116.89,1732)">
                        <path d="M0.35,-0.531L0.443,-0.376L0.443,-0.603L0.012,-0.603L0.083,-0.541L0.083,-0.062L0.012,-0L0.443,-0L0.443,-0.272L0.357,-0.072L0.232,-0.072L0.232,-0.272L0.291,-0.272L0.352,-0.195L0.352,-0.42L0.291,-0.342L0.232,-0.342L0.232,-0.531L0.35,-0.531Z" style="fill:rgb(35,31,32);fill-rule:nonzero;"/>
                    </g>
                    <g transform="matrix(1555.78,0,0,1555.78,5863.66,1732)">
                        <path d="M0.244,-0.541L0.315,-0.603L0.025,-0.603L0.094,-0.541L0.094,-0.062L0.025,-0L0.315,-0L0.244,-0.062L0.244,-0.541Z" style="fill:rgb(35,31,32);fill-rule:nonzero;"/>
                    </g>
                </g>
            </g>
        </g>
    </g>
</svg>
